<svg width="12" height="12" viewBox="0 0 12 12" fill="none" xmlns="http://www.w3.org/2000/svg">
<path d="M6.07569 4.11411L4.3036 0.469769C4.24718 0.353071 4.07432 0.422937 4.11078 0.546912L5.24677 4.44445C5.27114 4.53013 5.1857 4.60702 5.1043 4.57035L1.73805 3.06499C1.59108 2.99808 1.47746 3.20954 1.61156 3.29946L4.6777 5.36335C4.75047 5.41385 4.73523 5.52768 4.64857 5.55241L0.80499 6.68643C0.682816 6.72334 0.71842 6.90634 0.845598 6.89202L4.82366 6.43799C4.91065 6.42688 4.97117 6.52759 4.92145 6.60139L2.69635 9.97846C2.62506 10.0868 2.77097 10.2037 2.85828 10.1108L5.61703 7.16838C5.67815 7.1034 5.78637 7.13945 5.7952 7.23003L6.23205 11.2688C6.24626 11.3978 6.43184 11.3935 6.43999 11.2639L6.68731 7.20914C6.69194 7.12052 6.79831 7.07717 6.8624 7.13922L9.75586 9.94932C9.84742 10.038 9.9877 9.91439 9.91142 9.8095L7.53068 6.54028C7.47755 6.4689 7.5333 6.36546 7.62071 6.37249L11.6157 6.63981C11.7434 6.64817 11.7703 6.46143 11.6466 6.43255L7.75416 5.47968C7.66866 5.45899 7.64589 5.34604 7.71621 5.2922L10.9463 2.89248C11.0496 2.81517 10.9519 2.65631 10.8392 2.71342L7.25524 4.52225C7.17565 4.56269 7.0867 4.48988 7.10704 4.40316L8.05928 0.454447C8.0899 0.328902 7.91402 0.269472 7.86307 0.386415L6.2635 4.10971C6.22741 4.19226 6.11338 4.19493 6.07569 4.11411Z" fill="#537AFF"/>
</svg>
