<svg width="13" height="13" viewBox="0 0 13 13" fill="none" xmlns="http://www.w3.org/2000/svg">
<path d="M5.86196 4.61697L3.92877 0.641326C3.86722 0.514019 3.67865 0.590237 3.71842 0.725482L4.95767 4.97735C4.98427 5.07081 4.89106 5.1547 4.80226 5.11469L1.12999 3.47248C0.96965 3.39948 0.845709 3.63017 0.991992 3.72826L4.33687 5.97978C4.41626 6.03487 4.39964 6.15905 4.3051 6.18603L0.112102 7.42314C-0.021179 7.4634 0.0176623 7.66304 0.156401 7.64742L4.49611 7.15212C4.591 7.13999 4.65703 7.24986 4.60278 7.33036L2.1754 11.0144C2.09763 11.1326 2.25681 11.2601 2.35205 11.1589L5.3616 7.94891C5.42827 7.87802 5.54634 7.91735 5.55597 8.01616L6.03253 12.4221C6.04803 12.5628 6.25048 12.5581 6.25937 12.4167L6.52917 7.99337C6.53423 7.89669 6.65027 7.8494 6.72018 7.91709L9.87669 10.9827C9.97657 11.0794 10.1296 10.9445 10.0464 10.8301L7.44922 7.26371C7.39126 7.18583 7.45207 7.07299 7.54743 7.08066L11.9056 7.37228C12.0449 7.3814 12.0743 7.17768 11.9393 7.14618L7.69301 6.10669C7.59975 6.08411 7.5749 5.9609 7.65161 5.90216L11.1753 3.28429C11.288 3.19994 11.1815 3.02665 11.0585 3.08895L7.14874 5.06221C7.06192 5.10634 6.96488 5.0269 6.98707 4.9323L8.02588 0.624612C8.05928 0.487653 7.8674 0.42282 7.81182 0.550395L6.06685 4.61217C6.02747 4.70222 5.90307 4.70514 5.86196 4.61697Z" fill="#FEE5E5"/>
</svg>
